<?xml version="1.0" encoding="UTF-8" standalone="no"?>
<!DOCTYPE svg PUBLIC "-//W3C//DTD SVG 1.1//EN" "http://www.w3.org/Graphics/SVG/1.1/DTD/svg11.dtd">
<svg version="1.1" xmlns="http://www.w3.org/2000/svg" xmlns:xlink="http://www.w3.org/1999/xlink" preserveAspectRatio="xMidYMid meet" viewBox="0 0 459 380" width="459" height="380"><defs><path d="M82.59 2.57L189.06 2.57L189.06 56.53L82.59 56.53L82.59 2.57Z" id="b38LXcbmGv"></path><path d="M248.71 2.57L355.18 2.57L355.18 56.53L248.71 56.53L248.71 2.57Z" id="b1HYrbCmNo"></path><path d="M82.59 91.71L355.18 91.71L355.18 145.67L82.59 145.67L82.59 91.71Z" id="c5gw8ad7td"></path><path d="M82.59 181.41L355.18 181.41L355.18 235.36L82.59 235.36L82.59 181.41Z" id="b7DRnMm3O5"></path><path d="M179.06 305.85C184.59 305.85 189.06 310.32 189.06 315.85C189.06 328.52 189.06 356.55 189.06 369.23C189.06 374.75 184.59 379.23 179.06 379.23C171.57 379.23 159.08 379.23 151.58 379.23C146.06 379.23 141.58 374.75 141.58 369.23C141.58 356.55 141.58 328.52 141.58 315.85C141.58 310.32 146.06 305.85 151.58 305.85C159.08 305.85 171.57 305.85 179.06 305.85Z" id="bdAKa8RfO"></path><path d="M299.93 305.85C305.45 305.85 309.93 310.32 309.93 315.85C309.93 328.52 309.93 356.55 309.93 369.23C309.93 374.75 305.45 379.23 299.93 379.23C292.43 379.23 279.94 379.23 272.45 379.23C266.92 379.23 262.45 374.75 262.45 369.23C262.45 356.55 262.45 328.52 262.45 315.85C262.45 310.32 266.92 305.85 272.45 305.85C279.94 305.85 292.43 305.85 299.93 305.85Z" id="a2jnwXXnI"></path><path d="M78.99 342.54C78.99 362.79 62.07 379.23 41.22 379.23C20.38 379.23 3.45 362.79 3.45 342.54C3.45 322.29 20.38 305.85 41.22 305.85C62.07 305.85 78.99 322.29 78.99 342.54Z" id="a17hMvgICH"></path><path d="M408.49 306.85L448.78 306.85L448.78 378.72L408.49 378.72L408.49 306.85Z" id="c6ZAb1Y0y"></path><path d="M456.4 256.37C456.4 271.26 443.96 283.35 428.63 283.35C413.31 283.35 400.86 271.26 400.86 256.37C400.86 241.48 413.31 229.39 428.63 229.39C443.96 229.39 456.4 241.48 456.4 256.37Z" id="d25EBt3Ssk"></path><path d="M456.4 200.41C456.4 215.3 443.96 227.39 428.63 227.39C413.31 227.39 400.86 215.3 400.86 200.41C400.86 185.52 413.31 173.44 428.63 173.44C443.96 173.44 456.4 185.52 456.4 200.41Z" id="dpgEYqP7D"></path><path d="M456.4 120.69C456.4 135.58 443.96 147.67 428.63 147.67C413.31 147.67 400.86 135.58 400.86 120.69C400.86 105.8 413.31 93.71 428.63 93.71C443.96 93.71 456.4 105.8 456.4 120.69Z" id="eaylNCzx9"></path><path d="M456.4 64.73C456.4 79.62 443.96 91.71 428.63 91.71C413.31 91.71 400.86 79.62 400.86 64.73C400.86 49.84 413.31 37.75 428.63 37.75C443.96 37.75 456.4 49.84 456.4 64.73Z" id="a1w7cqQf2i"></path></defs><g><g><g><use xlink:href="#b38LXcbmGv" opacity="1" fill="#000000" fill-opacity="1"></use><g><use xlink:href="#b38LXcbmGv" opacity="1" fill-opacity="0" stroke="#000000" stroke-width="0" stroke-opacity="1"></use></g></g><g><use xlink:href="#b1HYrbCmNo" opacity="1" fill="#000000" fill-opacity="1"></use><g><use xlink:href="#b1HYrbCmNo" opacity="1" fill-opacity="0" stroke="#000000" stroke-width="0" stroke-opacity="1"></use></g></g><g><use xlink:href="#c5gw8ad7td" opacity="1" fill="#000000" fill-opacity="1"></use><g><use xlink:href="#c5gw8ad7td" opacity="1" fill-opacity="0" stroke="#000000" stroke-width="0" stroke-opacity="1"></use></g></g><g><use xlink:href="#b7DRnMm3O5" opacity="1" fill="#000000" fill-opacity="1"></use><g><use xlink:href="#b7DRnMm3O5" opacity="1" fill-opacity="0" stroke="#000000" stroke-width="0" stroke-opacity="1"></use></g></g><g><use xlink:href="#bdAKa8RfO" opacity="1" fill="#000000" fill-opacity="1"></use><g><use xlink:href="#bdAKa8RfO" opacity="1" fill-opacity="0" stroke="#000000" stroke-width="0" stroke-opacity="1"></use></g></g><g><use xlink:href="#a2jnwXXnI" opacity="1" fill="#000000" fill-opacity="1"></use><g><use xlink:href="#a2jnwXXnI" opacity="1" fill-opacity="0" stroke="#000000" stroke-width="0" stroke-opacity="1"></use></g></g><g><use xlink:href="#a17hMvgICH" opacity="1" fill="#000000" fill-opacity="1"></use><g><use xlink:href="#a17hMvgICH" opacity="1" fill-opacity="0" stroke="#000000" stroke-width="0" stroke-opacity="1"></use></g></g><g><use xlink:href="#c6ZAb1Y0y" opacity="1" fill="#000000" fill-opacity="1"></use><g><use xlink:href="#c6ZAb1Y0y" opacity="1" fill-opacity="0" stroke="#000000" stroke-width="0" stroke-opacity="1"></use></g></g><g><use xlink:href="#d25EBt3Ssk" opacity="1" fill="#000000" fill-opacity="1"></use><g><use xlink:href="#d25EBt3Ssk" opacity="1" fill-opacity="0" stroke="#000000" stroke-width="0" stroke-opacity="1"></use></g></g><g><use xlink:href="#dpgEYqP7D" opacity="1" fill="#000000" fill-opacity="1"></use><g><use xlink:href="#dpgEYqP7D" opacity="1" fill-opacity="0" stroke="#000000" stroke-width="0" stroke-opacity="1"></use></g></g><g><use xlink:href="#eaylNCzx9" opacity="1" fill="#000000" fill-opacity="1"></use><g><use xlink:href="#eaylNCzx9" opacity="1" fill-opacity="0" stroke="#000000" stroke-width="0" stroke-opacity="1"></use></g></g><g><use xlink:href="#a1w7cqQf2i" opacity="1" fill="#000000" fill-opacity="1"></use><g><use xlink:href="#a1w7cqQf2i" opacity="1" fill-opacity="0" stroke="#000000" stroke-width="0" stroke-opacity="1"></use></g></g></g></g></svg>