<?xml version="1.0" encoding="UTF-8" standalone="no"?>
<!DOCTYPE svg PUBLIC "-//W3C//DTD SVG 1.1//EN" "http://www.w3.org/Graphics/SVG/1.1/DTD/svg11.dtd">
<svg version="1.1" xmlns="http://www.w3.org/2000/svg" xmlns:xlink="http://www.w3.org/1999/xlink" preserveAspectRatio="xMidYMid meet" viewBox="0 0 700 700" width="700" height="700"><defs><path d="M184.23 213.75C204.63 213.72 221.21 230.06 221.24 250.22C221.27 270.37 204.74 286.76 184.34 286.79C163.94 286.82 147.36 270.48 147.33 250.33C147.3 230.17 163.83 213.78 184.23 213.75Z" id="fyspjYGd"></path><path d="M304.05 224.3L356.56 169.83L412.27 223.55L359.76 278.01L304.05 224.3Z" id="a1mYfBzbyU"></path><path d="M304.26 366.47L356.77 312.01L412.49 365.72L359.98 420.18L304.26 366.47Z" id="a4ptAev2jZ"></path><path d="M307.53 514.73L360.04 460.26L415.75 513.98L363.25 568.44L307.53 514.73Z" id="eliTElj8F"></path><path d="M475.74 185.23L551.39 184.75L551.88 262.14L476.23 262.62L475.74 185.23Z" id="a2lGYLP0Ey"></path><path d="M438.35 62.5C468.35 62.45 492.72 78.78 492.75 98.94C492.78 119.09 468.46 135.49 438.46 135.54C408.47 135.58 384.09 119.26 384.06 99.1C384.03 78.94 408.35 62.54 438.35 62.5Z" id="b4nyJvp4y"></path><path d="M190.25 453.74C210.64 453.71 227.23 470.05 227.26 490.21C227.29 510.36 210.75 526.75 190.36 526.78C169.96 526.82 153.38 510.48 153.34 490.32C153.31 470.16 169.85 453.77 190.25 453.74Z" id="i1tVTpRdXm"></path><path d="M180.7 170.1L160.66 152.07L251.98 50.58L272.02 68.62L180.7 170.1Z" id="b1Nss2hLxp"></path><path d="M493.17 376.76L493.13 347.2L667.04 346.93L667.09 376.5L493.17 376.76Z" id="emWc9UIMd"></path><path d="M493.52 608.76L493.17 376.76L520.13 376.72L520.48 608.72L493.52 608.76Z" id="ahGj6Hcdb"></path><path d="M346.61 636.55L346.57 606.98L520.48 606.72L520.52 636.29L346.61 636.55Z" id="ahGWfNTM1"></path><path d="M102.23 616.92C122.63 616.89 139.21 633.23 139.24 653.38C139.27 673.54 122.74 689.93 102.34 689.96C81.95 689.99 65.36 673.65 65.33 653.5C65.3 633.34 81.84 616.95 102.23 616.92Z" id="c4kDdIITq"></path><path d="M176.15 616.81C196.54 616.78 213.13 633.12 213.16 653.27C213.19 673.43 196.65 689.82 176.26 689.85C155.86 689.88 139.27 673.54 139.24 653.38C139.21 633.23 155.75 616.84 176.15 616.81Z" id="d8bkPnV1Wm"></path></defs><g><g><g><use xlink:href="#fyspjYGd" opacity="1" fill="#000000" fill-opacity="1"></use><g><use xlink:href="#fyspjYGd" opacity="1" fill-opacity="0" stroke="#000000" stroke-width="1" stroke-opacity="1"></use></g></g><g><use xlink:href="#a1mYfBzbyU" opacity="1" fill="#000000" fill-opacity="1"></use><g><use xlink:href="#a1mYfBzbyU" opacity="1" fill-opacity="0" stroke="#000000" stroke-width="1" stroke-opacity="1"></use></g></g><g><use xlink:href="#a4ptAev2jZ" opacity="1" fill="#000000" fill-opacity="1"></use><g><use xlink:href="#a4ptAev2jZ" opacity="1" fill-opacity="0" stroke="#000000" stroke-width="1" stroke-opacity="1"></use></g></g><g><use xlink:href="#eliTElj8F" opacity="1" fill="#000000" fill-opacity="1"></use><g><use xlink:href="#eliTElj8F" opacity="1" fill-opacity="0" stroke="#000000" stroke-width="1" stroke-opacity="1"></use></g></g><g><use xlink:href="#a2lGYLP0Ey" opacity="1" fill="#000000" fill-opacity="1"></use><g><use xlink:href="#a2lGYLP0Ey" opacity="1" fill-opacity="0" stroke="#000000" stroke-width="1" stroke-opacity="1"></use></g></g><g><use xlink:href="#b4nyJvp4y" opacity="1" fill="#000000" fill-opacity="1"></use><g><use xlink:href="#b4nyJvp4y" opacity="1" fill-opacity="0" stroke="#000000" stroke-width="1" stroke-opacity="1"></use></g></g><g><use xlink:href="#i1tVTpRdXm" opacity="1" fill="#000000" fill-opacity="1"></use><g><use xlink:href="#i1tVTpRdXm" opacity="1" fill-opacity="0" stroke="#000000" stroke-width="1" stroke-opacity="1"></use></g></g><g><use xlink:href="#b1Nss2hLxp" opacity="1" fill="#000000" fill-opacity="1"></use><g><use xlink:href="#b1Nss2hLxp" opacity="1" fill-opacity="0" stroke="#000000" stroke-width="1" stroke-opacity="1"></use></g></g><g><use xlink:href="#emWc9UIMd" opacity="1" fill="#000000" fill-opacity="1"></use><g><use xlink:href="#emWc9UIMd" opacity="1" fill-opacity="0" stroke="#000000" stroke-width="1" stroke-opacity="1"></use></g></g><g><use xlink:href="#ahGj6Hcdb" opacity="1" fill="#000000" fill-opacity="1"></use><g><use xlink:href="#ahGj6Hcdb" opacity="1" fill-opacity="0" stroke="#000000" stroke-width="1" stroke-opacity="1"></use></g></g><g><use xlink:href="#ahGWfNTM1" opacity="1" fill="#000000" fill-opacity="1"></use><g><use xlink:href="#ahGWfNTM1" opacity="1" fill-opacity="0" stroke="#000000" stroke-width="1" stroke-opacity="1"></use></g></g><g><use xlink:href="#c4kDdIITq" opacity="1" fill="#000000" fill-opacity="1"></use><g><use xlink:href="#c4kDdIITq" opacity="1" fill-opacity="0" stroke="#000000" stroke-width="1" stroke-opacity="1"></use></g></g><g><use xlink:href="#d8bkPnV1Wm" opacity="1" fill="#000000" fill-opacity="1"></use><g><use xlink:href="#d8bkPnV1Wm" opacity="1" fill-opacity="0" stroke="#000000" stroke-width="1" stroke-opacity="1"></use></g></g></g></g></svg>