<?xml version="1.0" encoding="UTF-8" standalone="no"?>
<!DOCTYPE svg PUBLIC "-//W3C//DTD SVG 1.1//EN" "http://www.w3.org/Graphics/SVG/1.1/DTD/svg11.dtd">
<svg version="1.1" xmlns="http://www.w3.org/2000/svg" xmlns:xlink="http://www.w3.org/1999/xlink" preserveAspectRatio="xMidYMid meet" viewBox="0 0 640 360" width="640" height="360"><defs><path d="M114.64 240.88L183.33 240.88L183.33 360.42L114.64 360.42L114.64 240.88Z" id="ePtrFpNjE"></path><path d="M229.25 240.88L297.94 240.88L297.94 360.42L229.25 360.42L229.25 240.88Z" id="j1k7oHiGFU"></path><path d="M343.87 240.88L412.56 240.88L412.56 360.42L343.87 360.42L343.87 240.88Z" id="d1OYZkZ6of"></path><path d="M458.48 240.88L527.17 240.88L527.17 360.42L458.48 360.42L458.48 240.88Z" id="gCPBQEljn"></path><path d="M571.31 240.88L640 240.88L640 360.42L571.31 360.42L571.31 240.88Z" id="cgMyoABCA"></path><path d="M66.9 125.82C66.9 144.28 51.91 159.27 33.45 159.27C14.99 159.27 0 144.28 0 125.82C0 107.35 14.99 92.37 33.45 92.37C51.91 92.37 66.9 107.35 66.9 125.82Z" id="bw0GItw3q"></path><path d="M157.43 125.82C157.43 144.28 142.44 159.27 123.98 159.27C105.52 159.27 90.53 144.28 90.53 125.82C90.53 107.35 105.52 92.37 123.98 92.37C142.44 92.37 157.43 107.35 157.43 125.82Z" id="c2v5Q0WHwa"></path><path d="M246.18 125.82C246.18 144.28 231.19 159.27 212.73 159.27C194.26 159.27 179.27 144.28 179.27 125.82C179.27 107.35 194.26 92.37 212.73 92.37C231.19 92.37 246.18 107.35 246.18 125.82Z" id="a55BJ319w"></path><path d="M66.9 33.45C66.9 51.91 51.91 66.9 33.45 66.9C14.99 66.9 0 51.91 0 33.45C0 14.99 14.99 0 33.45 0C51.91 0 66.9 14.99 66.9 33.45Z" id="b3XTdXShta"></path><path d="M157.43 33.45C157.43 51.91 142.44 66.9 123.98 66.9C105.52 66.9 90.53 51.91 90.53 33.45C90.53 14.99 105.52 0 123.98 0C142.44 0 157.43 14.99 157.43 33.45Z" id="b1kpLl2KLG"></path><path d="M247.07 33.45C247.07 51.91 232.08 66.9 213.62 66.9C195.16 66.9 180.17 51.91 180.17 33.45C180.17 14.99 195.16 0 213.62 0C232.08 0 247.07 14.99 247.07 33.45Z" id="fjRYl77KZ"></path><path d="M0 240.88L68.69 240.88L68.69 360.42L0 360.42L0 240.88Z" id="a6kGNYqgN"></path></defs><g><g><g><use xlink:href="#ePtrFpNjE" opacity="1" fill="#000000" fill-opacity="1"></use></g><g><use xlink:href="#j1k7oHiGFU" opacity="1" fill="#000000" fill-opacity="1"></use></g><g><use xlink:href="#d1OYZkZ6of" opacity="1" fill="#000000" fill-opacity="1"></use></g><g><use xlink:href="#gCPBQEljn" opacity="1" fill="#000000" fill-opacity="1"></use></g><g><use xlink:href="#cgMyoABCA" opacity="1" fill="#000000" fill-opacity="1"></use></g><g><use xlink:href="#bw0GItw3q" opacity="1" fill="#000000" fill-opacity="1"></use></g><g><use xlink:href="#c2v5Q0WHwa" opacity="1" fill="#000000" fill-opacity="1"></use></g><g><use xlink:href="#a55BJ319w" opacity="1" fill="#000000" fill-opacity="1"></use></g><g><use xlink:href="#b3XTdXShta" opacity="1" fill="#000000" fill-opacity="1"></use></g><g><use xlink:href="#b1kpLl2KLG" opacity="1" fill="#000000" fill-opacity="1"></use></g><g><use xlink:href="#fjRYl77KZ" opacity="1" fill="#000000" fill-opacity="1"></use></g><g><use xlink:href="#a6kGNYqgN" opacity="1" fill="#000000" fill-opacity="1"></use></g></g></g></svg>